<svg id="Layer_1" data-name="Layer 1" xmlns="http://www.w3.org/2000/svg" viewBox="0 0 240 74"><defs><style>.cls-1{fill:none;stroke:#ffd666;stroke-miterlimit:10;stroke-width:2px;fill-rule:evenodd;}.cls-2{fill:#ffd666;}.cls-3{fill:#fff;}</style></defs><title>Artboard 1</title><path class="cls-1" d="M95.76,22.79c-2.32,0-5.08.49-8.08,4V17a4.47,4.47,0,1,0-8.93,0V48.84a4.47,4.47,0,1,0,8.93,0V36.48c0-3.55,1.68-5.51,4.74-5.51S97,32.87,97,36.48V48.84a4.46,4.46,0,1,0,8.92,0v-15C105.92,26.94,102.13,22.79,95.76,22.79Zm25.62.21A25.56,25.56,0,0,0,112,24.54a3.78,3.78,0,0,0-2.44,3.52,3.76,3.76,0,0,0,5.05,3.48,18.57,18.57,0,0,1,5.55-.79c4.79,0,5.81,2.65,5.82,4.9a20.43,20.43,0,0,0-6.68-1c-7.63,0-12,3.5-12,9.6v.11c0,5.51,4.13,9.22,10.27,9.22a11.5,11.5,0,0,0,8.45-3.22,4.13,4.13,0,0,0,4.21,3A4.29,4.29,0,0,0,134.62,49V35.83c0-4.14-1.08-7.34-3.23-9.49S125.8,23,121.38,23Zm-1.29,24.12c-2.53,0-4.1-1.2-4.1-3.14v-.11c0-2.3,1.92-3.62,5.28-3.62a12.57,12.57,0,0,1,4.86,1v1.22C126.13,45.18,123.64,47.12,120.09,47.12Zm26.49-20.28a10.79,10.79,0,0,1,8.66-4.05c6.72,0,13.5,5.25,13.5,15.31v.11a16,16,0,0,1-4.1,11.35,12.88,12.88,0,0,1-9.4,4,11.2,11.2,0,0,1-8.62-3.72v7.66a4.46,4.46,0,1,1-8.92,0v-30a4.46,4.46,0,0,1,8.88-.64ZM159.83,38.1c0-4.34-2.88-7.62-6.69-7.62s-6.63,3.21-6.63,7.62v.11c0,4.41,2.79,7.61,6.63,7.61s6.69-3.2,6.69-7.61Zm28.52-15.31a10.81,10.81,0,0,0-8.67,4.05,4.46,4.46,0,0,0-8.88.64v30a4.47,4.47,0,1,0,8.93,0V49.81a11.2,11.2,0,0,0,8.62,3.72,12.9,12.9,0,0,0,9.4-4,16,16,0,0,0,4.1-11.35V38.1C201.85,28,195.06,22.79,188.35,22.79Zm-2.1,7.69c3.81,0,6.68,3.28,6.68,7.62v.11c0,4.41-2.81,7.61-6.68,7.61s-6.63-3.2-6.63-7.61V38.1C179.62,33.69,182.41,30.48,186.25,30.48Zm35.51-4.1c.82-2.21,2.3-3.38,4.27-3.38a4.14,4.14,0,0,1,4.24,4.14,6.63,6.63,0,0,1-.41,2.09L219.8,53.45c-2.53,6.14-5.17,8.32-10.08,8.32a12.67,12.67,0,0,1-4.6-.78,3.93,3.93,0,0,1-2.82-3.75,3.62,3.62,0,0,1,3.59-3.71,4,4,0,0,1,1.46.24,4.86,4.86,0,0,0,1.61.31,2.31,2.31,0,0,0,2.57-1.52l.21-.48L202,29.34a6.24,6.24,0,0,1-.46-2,4.26,4.26,0,0,1,4.4-4.3c2.07,0,3.47,1.08,4.28,3.32l5.89,15.89Z"/><path class="cls-2" d="M64,18.78V44.91A18.82,18.82,0,0,1,45.12,63.69h-1.9l-9.74,9.69A2.11,2.11,0,0,1,32,74a2.14,2.14,0,0,1-1.41-.53l-.16-.16h0l-9.65-9.61H18.84A18.81,18.81,0,0,1,0,44.91V18.78A18.82,18.82,0,0,1,18.85,0H45.12A18.82,18.82,0,0,1,64,18.78Z"/><path class="cls-3" d="M14.9,36.2a2.28,2.28,0,0,0-1.84,3.62,23.2,23.2,0,0,0,37.86,0,2.29,2.29,0,0,0-1.84-3.62Z"/><path class="cls-3" d="M25.76,27.23H14.57V21.6a5.6,5.6,0,1,1,11.19,0Z"/><path class="cls-3" d="M49.41,27.23H38.22V21.6a5.6,5.6,0,1,1,11.19,0Z"/></svg>